<svg width="44" height="47" viewBox="0 0 44 47" fill="none" xmlns="http://www.w3.org/2000/svg">
<path d="M22 0C9.77778 0 0 9.80805 0 22.0681V39.2322C0 41.1831 0.772617 43.0542 2.14788 44.4337C3.52315 45.8132 5.38841 46.5882 7.33333 46.5882H14.6667V26.9721H4.88889V22.0681C4.88889 17.5159 6.69166 13.1502 9.90062 9.93127C13.1096 6.71238 17.4619 4.90402 22 4.90402C26.5381 4.90402 30.8904 6.71238 34.0994 9.93127C37.3083 13.1502 39.1111 17.5159 39.1111 22.0681V26.9721H29.3333V46.5882H36.6667C38.6116 46.5882 40.4768 45.8132 41.8521 44.4337C43.2274 43.0542 44 41.1831 44 39.2322V22.0681C44 9.80805 34.1489 0 22 0Z" fill="white"/>
</svg>
