<svg width="110" height="148" viewBox="0 0 110 148" fill="none" xmlns="http://www.w3.org/2000/svg">
<g clip-path="url(#clip0_369_676)">
<path d="M67.1235 55.722C69.1101 55.7253 71.0278 56.4441 72.5197 57.7446C74.0116 59.0451 74.9761 60.8387 75.2336 62.7915C75.4911 64.7444 75.0242 66.7235 73.9196 68.3605C72.8151 69.9975 71.1482 71.1809 69.2293 71.6904C68.94 71.2111 68.4932 70.8451 67.964 70.6536C67.4347 70.4622 66.8552 70.457 66.3225 70.6389C65.7899 70.8209 65.3365 71.1789 65.0385 71.6529C64.7406 72.1269 64.6161 72.6881 64.686 73.2423C64.7558 73.7965 65.0158 74.3101 65.4223 74.6968C65.8288 75.0835 66.3571 75.3198 66.9185 75.3662C67.48 75.4126 68.0404 75.2661 68.5059 74.9514C68.9713 74.6367 69.3134 74.1729 69.4748 73.6378C71.2175 73.2257 72.8192 72.364 74.1175 71.1401C75.4157 69.9162 76.3644 68.3736 76.8672 66.6689C77.37 64.9641 77.4091 63.1579 76.9805 61.4334C76.5518 59.7088 75.6707 58.1274 74.4265 56.8494C73.1824 55.5715 71.6194 54.6425 69.8961 54.1568C68.1729 53.671 66.3507 53.6458 64.6144 54.0836C62.8782 54.5214 61.2896 55.4067 60.0099 56.6496C58.7301 57.8926 57.8048 59.449 57.3277 61.161H51.8984C51.7573 61.1597 51.6177 61.1885 51.4889 61.2455C51.3601 61.3025 51.2452 61.3863 51.152 61.4912C51.0588 61.5962 50.9895 61.7198 50.9489 61.8537C50.9082 61.9876 50.897 62.1286 50.9162 62.2671C50.9575 62.5631 51.0635 63.4199 51.0635 63.8425C51.0635 65.4493 50.5829 67.0201 49.6824 68.3562C48.782 69.6922 47.5021 70.7336 46.0046 71.3485C44.5072 71.9634 42.8595 72.1243 41.2698 71.8108C39.6801 71.4973 38.2199 70.7235 37.0738 69.5873C35.9277 68.4511 35.1472 67.0035 34.831 65.4275C34.5148 63.8515 34.6771 62.218 35.2973 60.7334C35.9176 59.2489 36.968 57.98 38.3156 57.0873C39.6633 56.1946 41.2477 55.7181 42.8685 55.7181C43.129 55.7181 43.3788 55.6155 43.563 55.4329C43.7472 55.2503 43.8507 55.0026 43.8507 54.7444V50.8496C43.8507 50.5914 43.7472 50.3438 43.563 50.1612C43.3788 49.9785 43.129 49.876 42.8685 49.876H24.7775L30.8785 46.8517C31.0415 46.7708 31.1785 46.6465 31.2742 46.4927C31.37 46.339 31.4207 46.1619 31.4207 45.9812V9.91207C31.4205 9.75545 31.3823 9.60117 31.3091 9.46234C31.236 9.3235 31.1302 9.2042 31.0006 9.11456C30.8711 9.02492 30.7216 8.96759 30.565 8.94743C30.4083 8.92727 30.249 8.94488 30.1007 8.99876L0.636399 19.7229C0.448152 19.7931 0.286174 19.9189 0.172355 20.0833C0.0585359 20.2476 -0.0016362 20.4427 -2.96849e-05 20.6421V60.1347C-2.96849e-05 85.8575 10.7741 110.521 29.5625 127.8C31.183 129.292 32.8821 130.742 34.6107 132.113L54.3871 147.788C54.5317 147.902 54.7059 147.974 54.8897 147.994C55.0735 148.015 55.2594 147.984 55.4261 147.904C55.5927 147.825 55.7333 147.7 55.8317 147.545C55.9301 147.389 55.9822 147.21 55.9821 147.026V108.172C55.9833 108.022 55.9493 107.873 55.8828 107.738C55.8164 107.603 55.7192 107.485 55.5991 107.393L44.1846 98.677L48.4825 93.5983C48.5736 93.4903 48.64 93.364 48.6772 93.228C48.7143 93.0921 48.7212 92.9498 48.6975 92.811C48.6738 92.6721 48.62 92.5401 48.5398 92.4238C48.4596 92.3076 48.3549 92.21 48.233 92.1378L44.1826 89.7386C44.0255 88.5604 43.5128 85.764 42.1221 84.5002C41.0593 83.5269 39.7087 82.9185 38.2701 82.7651C36.846 82.6143 35.41 82.9106 34.1648 83.6122C33.6692 83.894 33.099 84.0203 32.5296 83.9744C31.9601 83.9285 31.418 83.7126 30.9748 83.3551L30.9532 83.3356C30.1306 82.6574 29.5619 81.7246 29.3385 80.6872C29.2897 80.4647 29.1637 80.2663 28.9826 80.1263C28.8014 79.9863 28.5765 79.9138 28.3469 79.9212C28.1174 79.9286 27.8977 80.0155 27.7261 80.1668C27.5545 80.3182 27.4418 80.5244 27.4076 80.7495C27.0385 83.1338 27.2744 85.5717 28.094 87.8429C28.9137 90.1141 30.2913 92.147 32.1023 93.758C31.975 94.3029 32.0407 94.8747 32.2885 95.3773C32.5362 95.8799 32.9509 96.2826 33.4628 96.5179C33.9747 96.7532 34.5527 96.8066 35.0997 96.6692C35.6467 96.5318 36.1293 96.212 36.4665 95.7635C36.8037 95.315 36.9749 94.7651 36.9514 94.2062C36.9279 93.6473 36.7111 93.1134 36.3375 92.6943C35.9638 92.2752 35.456 91.9963 34.8994 91.9045C34.3428 91.8127 33.7713 91.9137 33.2809 92.1903C31.0726 90.1686 29.6608 87.4349 29.2973 84.4768C29.4269 84.6014 29.5605 84.7222 29.7 84.839L29.7196 84.8546C30.471 85.4636 31.391 85.8325 32.3582 85.9124C33.3254 85.9924 34.2943 85.7797 35.1371 85.3025C36.024 84.8063 37.0458 84.5992 38.058 84.7105C39.0808 84.8186 40.0411 85.2509 40.7962 85.9432C41.6468 86.7221 42.1614 89.1038 42.2852 90.4221C42.2996 90.5748 42.3501 90.7219 42.4327 90.8515C42.5153 90.9811 42.6276 91.0895 42.7605 91.168L46.2353 93.2263L42.02 98.2077C41.935 98.3082 41.8713 98.4247 41.8328 98.5502C41.7943 98.6757 41.7818 98.8076 41.796 98.938C41.8104 99.0684 41.8512 99.1947 41.916 99.3092C41.9808 99.4236 42.0683 99.5239 42.1732 99.604L54.0178 108.651V145.001L35.8364 130.59C34.1471 129.249 32.4853 127.829 30.8982 126.371C12.5105 109.462 1.96426 85.3181 1.96426 60.1308V21.3178L29.4643 11.3064V45.3853L20.185 49.9831C19.9862 50.0807 19.8266 50.2423 19.7322 50.4414C19.6378 50.6404 19.6142 50.8653 19.6653 51.0794C19.7163 51.2935 19.8389 51.4841 20.0132 51.6203C20.1875 51.7564 20.4031 51.83 20.625 51.8292H41.8943V53.8233C39.936 54.0119 38.075 54.7601 36.5375 55.9772C35 57.1942 33.852 58.8277 33.233 60.6792C32.614 62.5308 32.5506 64.5206 33.0506 66.4072C33.5505 68.2937 34.5923 69.9958 36.0493 71.3065C37.5064 72.6173 39.316 73.4805 41.2584 73.7911C43.2008 74.1018 45.1924 73.8466 46.9913 73.0565C48.7902 72.2665 50.319 70.9756 51.392 69.3406C52.465 67.7056 53.036 65.797 53.0357 63.8464C53.0357 63.6341 53.02 63.3732 52.9964 63.1122H58.1035C58.3322 63.1121 58.5537 63.0329 58.7298 62.8882C58.9059 62.7435 59.0255 62.5424 59.068 62.3196C59.4271 60.4627 60.428 58.788 61.8983 57.5838C63.3686 56.3796 65.2164 55.7212 67.1235 55.722Z" fill="white"/>
<path d="M109.356 19.723L55.3378 0.054599C55.1896 0.000642604 55.0304 -0.0170867 54.8738 0.00291416C54.7172 0.022915 54.5678 0.0800562 54.4382 0.169494C54.3076 0.25975 54.2012 0.38011 54.1279 0.520214C54.0547 0.660317 54.0169 0.815965 54.0178 0.973757V33.3273C54.0178 33.4982 54.0632 33.6661 54.1494 33.8142C54.2356 33.9622 54.3596 34.0851 54.5089 34.1705C54.6582 34.256 54.8276 34.301 55 34.301C55.1724 34.301 55.3417 34.256 55.4911 34.1705L78.5714 20.9615V45.9852C78.5714 46.1659 78.6221 46.343 78.7179 46.4967C78.8136 46.6505 78.9506 46.7747 79.1135 46.8557L86.955 50.7504C86.9322 50.879 86.9204 51.0093 86.9196 51.1399C86.9193 51.6821 87.1014 52.2089 87.4371 52.6369C87.7728 53.0649 88.2429 53.3696 88.773 53.5029C89.3031 53.6361 89.8629 53.5903 90.3638 53.3725C90.8646 53.1548 91.2779 52.7777 91.5381 52.3008C91.7984 51.824 91.8908 51.2747 91.8007 50.7399C91.7105 50.2052 91.443 49.7155 91.0405 49.3485C90.638 48.9814 90.1235 48.758 89.5785 48.7135C89.0334 48.669 88.489 48.8061 88.0314 49.103L80.5357 45.3835V19.279C80.5357 19.1081 80.4903 18.9402 80.4041 18.7922C80.3179 18.6442 80.1939 18.5213 80.0446 18.4358C79.8953 18.3503 79.7259 18.3054 79.5535 18.3054C79.3811 18.3054 79.2118 18.3503 79.0625 18.4358L55.9821 31.6409V2.36807L108.036 21.3179V60.1309C108.036 83.5772 98.7289 106.478 82.4685 123.107L61.6786 104.297L72.3014 96.1884C73.6221 96.2232 74.9237 95.8709 76.0434 95.1757C76.1848 95.0881 76.3243 94.9946 76.4578 94.8992C76.8075 94.6558 77.1532 94.3929 77.4832 94.1203C79.424 92.5186 80.9141 90.4466 81.8089 88.1056C82.7038 85.7646 82.973 83.2339 82.5903 80.7594C82.5564 80.5337 82.4436 80.327 82.2716 80.1754C82.0997 80.0238 81.8795 79.9369 81.6494 79.9298H81.618C81.3939 79.9301 81.1766 80.0063 81.0023 80.1459C80.8279 80.2855 80.7069 80.4799 80.6594 80.6971C80.4354 81.7347 79.8669 82.6679 79.0448 83.3474L79.0252 83.363C78.5819 83.7205 78.0399 83.9364 77.4704 83.9822C76.9009 84.0281 76.3308 83.9019 75.8352 83.6201C74.5898 82.9188 73.1539 82.6225 71.7298 82.7729C70.5273 82.9024 69.3819 83.3492 68.4128 84.0667C67.4437 84.7843 66.6865 85.7463 66.22 86.8527C65.6761 86.988 65.1952 87.3037 64.8575 87.7475C64.5197 88.1913 64.3453 88.7363 64.3634 89.292C64.3814 89.8476 64.5907 90.3804 64.9566 90.8018C65.3224 91.2231 65.8227 91.5076 66.3742 91.608C66.9258 91.7083 67.4954 91.6185 67.9883 91.3533C68.4812 91.0882 68.8677 90.6638 69.0836 90.1507C69.2995 89.6376 69.3316 89.0667 69.1748 88.533C69.018 87.9992 68.6816 87.5348 68.2216 87.2168C68.4727 86.7401 68.805 86.3099 69.2037 85.9452C69.9586 85.2522 70.9189 84.8192 71.9419 84.7106C72.9543 84.602 73.9754 84.8118 74.8609 85.3104C75.7032 85.7874 76.6716 86.0002 77.6384 85.9206C78.6052 85.841 79.525 85.4727 80.2764 84.8644L80.3098 84.8352C80.4453 84.7242 80.575 84.6074 80.7027 84.4866C80.3118 87.6656 78.7121 90.577 76.23 92.6266C75.9412 92.8662 75.6407 93.0959 75.3323 93.3082L75.3146 93.3218C75.2184 93.3919 75.1182 93.4601 75.0141 93.5166C74.1381 94.059 73.1086 94.3056 72.0794 94.2196C71.8365 94.1997 71.5946 94.269 71.3998 94.4143L59.563 103.452C59.4495 103.539 59.3566 103.649 59.2907 103.775C59.2247 103.901 59.1875 104.04 59.1815 104.182C59.1755 104.324 59.2009 104.466 59.256 104.597C59.311 104.728 59.3944 104.846 59.5002 104.942L81.8459 125.179C82.033 125.348 82.2789 125.439 82.5322 125.433C82.7855 125.427 83.0266 125.324 83.2051 125.146C91.7073 116.636 98.4318 106.546 102.993 95.4542C107.635 84.247 110.016 72.2462 110 60.1309V20.6422C110.001 20.4419 109.94 20.2461 109.824 20.0816C109.709 19.9172 109.545 19.7919 109.356 19.723Z" fill="white"/>
</g>
<defs>
<clipPath id="clip0_369_676">
<rect width="110" height="148" fill="white"/>
</clipPath>
</defs>
</svg>
