<svg xmlns="http://www.w3.org/2000/svg" viewBox="0 0 733.19 981.28"><defs><style>.cls-1{fill:#fff;}</style></defs><g id="Calque_2" data-name="Calque 2"><g id="Calque_1-2" data-name="Calque 1"><path class="cls-1" d="M132.75,77.31a60.24,60.24,0,0,0-28-21.82,62,62,0,0,0-38.11-1.91A39.77,39.77,0,0,1,23.9,38.85c-.18-.24-.35-.49-.52-.73A60.25,60.25,0,0,1,12.54,0C-7.35,45-4.07,98.64,25.92,141.48c2.47,3.53,5.08,6.92,7.8,10.16q1.45,1.8,3,3.47c20.5,21.84,54.74,25.71,80.32,7.79C145.08,143.28,152.11,105,132.75,77.31Z"/><path class="cls-1" d="M720.66,0a60.38,60.38,0,0,1-10.84,38.12l-.53.73a39.75,39.75,0,0,1-42.72,14.73,62,62,0,0,0-38.12,1.91,60.24,60.24,0,0,0-28,21.82c-19.36,27.65-12.33,66,15.69,85.59,25.58,17.92,59.82,14,80.32-7.79q1.56-1.67,3-3.47c2.72-3.24,5.33-6.63,7.8-10.16C737.27,98.64,740.54,45,720.66,0Z"/><path class="cls-1" d="M504.25,556.28H491.74V407.19c0-8.07-9.6-12.78-16.54-8.11l-98,65.92A19.13,19.13,0,0,1,356,465l-98-65.92c-6.94-4.67-16.54,0-16.54,8.11V556.28H228.94c-20.74,0-37.55,15.94-37.55,35.62H541.8C541.8,572.22,525,556.28,504.25,556.28Z"/><path class="cls-1" d="M436.68,611.9a51.8,51.8,0,0,0-51.44,46.28H348.58a51.72,51.72,0,1,0,0,10.88h36.66a51.72,51.72,0,1,0,51.44-57.16Zm6.05,10.44a41.71,41.71,0,0,1,7.35,1.78L397.18,677a40.85,40.85,0,0,1-1.78-7.35Zm-140.09-.07a41.66,41.66,0,0,1,7.44,1.69l-52.59,52.59a41.86,41.86,0,0,1-1.69-7.44Zm-35.87,69.9,58.93-58.93a41.87,41.87,0,0,1,6.76,8.19L275,698.92A42.18,42.18,0,0,1,266.77,692.17Zm21.77,12.27L338,655a41.59,41.59,0,0,1-1.35,22.1l-26,26a41.59,41.59,0,0,1-22.1,1.35ZM406.61,692.5l58.94-59a42,42,0,0,1,6.68,8.27l-57.36,57.35A42.52,42.52,0,0,1,406.61,692.5Zm22,12,49-49a41.53,41.53,0,0,1-1.79,22.55l-24.67,24.67a41.56,41.56,0,0,1-14.46,2.59A42.27,42.27,0,0,1,428.59,704.55Z"/><path class="cls-1" d="M579.2,770h0a472.25,472.25,0,0,0,62.4-234.9V332.26L575,307.8l39.26-52.64c17-22.82,11.56-55.38-12.08-71.93h0c-23.64-16.55-56.1-10.56-71.73,13.25L480.2,273,366.6,231.28,253,273l-50.23-76.52c-15.63-23.81-48.09-29.8-71.73-13.25h0c-23.63,16.55-29.1,49.11-12.08,71.93l39.26,52.64L91.6,332.26V535.07A472.2,472.2,0,0,0,154,770h0L90.92,866a27.16,27.16,0,0,0,44.46,31.13l54.7-73.34h0a458.58,458.58,0,0,0,75.84,77L366.6,981.28,467.27,900.8a458.9,458.9,0,0,0,75.84-77h0l54.71,73.34A27,27,0,0,0,635,902.9h0A27,27,0,0,0,642.27,866ZM171.08,797.51h0Zm271.22,72-75.7,60.52-75.7-60.52a419.17,419.17,0,0,1-67.23-67.69,426.35,426.35,0,0,1-50.06-80.55,432.82,432.82,0,0,1-42-186.24V360.19l235-86.29,235,86.29V535.06a434.81,434.81,0,0,1-10.78,96.19,432.08,432.08,0,0,1-31.24,90.06,426.35,426.35,0,0,1-50.06,80.55A419.52,419.52,0,0,1,442.3,869.55Zm119.81-72Z"/></g></g></svg>